<svg xmlns="http://www.w3.org/2000/svg" xmlns:xlink="http://www.w3.org/1999/xlink" viewBox="0 0 51.09 51.09"><defs><style>.cls-1{fill:#f9f9f9;}.cls-2{fill:url(#linear-gradient);}.cls-3{fill:url(#linear-gradient-2);}.cls-4{fill:url(#linear-gradient-3);}</style><linearGradient id="linear-gradient" x1="14.46" y1="5.84" x2="50.06" y2="48.89" gradientUnits="userSpaceOnUse"><stop offset="0" stop-color="#964c9c"/><stop offset="1" stop-color="#40e5ed"/></linearGradient><linearGradient id="linear-gradient-2" x1="6.55" y1="12.38" x2="42.16" y2="55.42" xlink:href="#linear-gradient"/><linearGradient id="linear-gradient-3" x1="10.71" y1="8.94" x2="46.32" y2="51.98" xlink:href="#linear-gradient"/></defs><g id="Layer_2" data-name="Layer 2"><g id="Layer_1-2" data-name="Layer 1"><circle class="cls-1" cx="25.55" cy="25.55" r="25.55"/><polygon class="cls-2" points="34.76 27.34 34.76 17.68 24.18 30.3 33.47 30.3 33.47 34.38 34.76 34.38 34.76 30.3 36.52 30.3 36.52 29.01 26.94 29.01 33.47 21.23 33.47 27.34 34.76 27.34"/><path class="cls-3" d="M21.94,28c.12-.15.25-.29.38-.43,1-1.14,2.09-2.32,2.09-4.17a4.77,4.77,0,0,0-9.53,0v.34h1.29v-.34a3.48,3.48,0,0,1,7,0c0,1.35-.78,2.22-1.76,3.31l0,0a4.4,4.4,0,0,0-.35.39l-6.38,7.25h9.29V33.09H17.44Z"/><path class="cls-4" d="M37.34,14.77l-.9.92a15.62,15.62,0,1,1-10.89-4.42h3.6l-3,1.51.59,1.15,3.94-2,2.56-1.3-6.5-3.31-.59,1.15,3,1.52h-3.6a16.9,16.9,0,1,0,16.9,16.9A16.75,16.75,0,0,0,37.34,14.77Z"/></g></g></svg>