<svg xmlns="http://www.w3.org/2000/svg" viewBox="0 0 20.87 25.55"><defs><style>.cls-1{fill:#5b5b5b;stroke:#5b5b5b;stroke-miterlimit:10;stroke-width:0.5px;fill-rule:evenodd;}</style></defs><g id="Layer_2" data-name="Layer 2"><g id="Layer_1-2" data-name="Layer 1"><path class="cls-1" d="M17.89,5.92V17.27h2.42a.31.31,0,0,1,.31.31.32.32,0,0,1-.07.19l-5,7.39a.32.32,0,0,1-.43.09l-.08-.09-5-7.41a.31.31,0,0,1,.09-.42.27.27,0,0,1,.17-.06h2.41V5.92a1.8,1.8,0,0,1,.55-1.3,1.83,1.83,0,0,1,1.31-.55H16a1.8,1.8,0,0,1,1.3.55h0a1.82,1.82,0,0,1,.55,1.3ZM7.49,19.62V8a.3.3,0,0,1,.31-.3H10L5.55,1.11,1.14,7.66H3.28a.3.3,0,0,1,.31.3V19.62a1.23,1.23,0,0,0,.36.87H4a1.27,1.27,0,0,0,.87.36H6.26a1.25,1.25,0,0,0,1.23-1.24ZM8.11,8.27h2.42A.31.31,0,0,0,10.84,8a.34.34,0,0,0-.07-.19L5.8.39A.31.31,0,0,0,5.37.3a.24.24,0,0,0-.08.09l-5,7.4a.32.32,0,0,0,.09.43.26.26,0,0,0,.17,0H3V19.62a1.84,1.84,0,0,0,.55,1.31h0a1.83,1.83,0,0,0,1.3.54H6.26a1.86,1.86,0,0,0,1.85-1.85V8.27Zm9.16,9.31V5.92a1.25,1.25,0,0,0-.36-.87h0A1.23,1.23,0,0,0,16,4.69H14.61a1.27,1.27,0,0,0-.88.36,1.25,1.25,0,0,0-.36.87V17.58a.31.31,0,0,1-.31.31H10.92l4.41,6.55,4.4-6.55H17.58A.31.31,0,0,1,17.27,17.58Z"/></g></g></svg>