<svg xmlns="http://www.w3.org/2000/svg" viewBox="0 0 25.24 19.9"><defs><style>.cls-1{fill:#5b5b5b;stroke:#5b5b5b;stroke-miterlimit:10;stroke-width:0.5px;fill-rule:evenodd;}</style></defs><g id="Layer_2" data-name="Layer 2"><g id="Layer_1-2" data-name="Layer 1"><path class="cls-1" d="M1,8.71,8.3,12.37l3.81-1.91L4.79,6.8,1,8.71ZM12.39,19.17l-.18-.07L5.08,15.53a.85.85,0,0,1-.37-.33.89.89,0,0,1-.13-.48V11L8.2,12.82a.2.2,0,0,0,.2,0l4-2v8.34Zm.46-8.34v8.34L13,19.1l7.13-3.57a.91.91,0,0,0,.37-.33.89.89,0,0,0,.13-.48V11L17,12.82a.2.2,0,0,1-.2,0l-4-2Zm8.27-.05v3.94a1.33,1.33,0,0,1-.76,1.22L13.23,19.5a1.37,1.37,0,0,1-.61.15A1.34,1.34,0,0,1,12,19.5L4.88,15.94a1.33,1.33,0,0,1-.76-1.22V10.78L.38,8.91a.27.27,0,0,1-.11-.1A.24.24,0,0,1,.38,8.5L4.29,6.55l-3.91-2a.21.21,0,0,1-.11-.1.22.22,0,0,1,.11-.3L8.2.27a.23.23,0,0,1,.2,0l4.22,2.11L16.84.27a.23.23,0,0,1,.2,0l7.82,3.92a.21.21,0,0,1,.11.1.22.22,0,0,1-.11.3L21,6.55l3.91,2a.23.23,0,0,1,.11.11.23.23,0,0,1-.11.3l-3.74,1.87ZM12.85,3v7.09l7.09-3.54L12.85,3Zm-.46,7.09L5.3,6.55,12.39,3v7.09Zm8.05-3.8,3.82-1.9L16.94.73,13.13,2.64l7.31,3.65Zm-3.5,6.08-3.81-1.91L20.44,6.8l3.82,1.91-7.32,3.66ZM12.11,2.64,8.3.73,1,4.39,4.8,6.29Z"/></g></g></svg>