<svg xmlns="http://www.w3.org/2000/svg" xmlns:xlink="http://www.w3.org/1999/xlink" viewBox="0 0 29.31 29.32"><defs><style>.cls-1{fill:url(#linear-gradient);}.cls-2{fill:url(#linear-gradient-2);}</style><linearGradient id="linear-gradient" x1="-2.28" y1="-0.98" x2="35.81" y2="34.49" gradientUnits="userSpaceOnUse"><stop offset="0" stop-color="#964c9c"/><stop offset="1" stop-color="#40e5ed"/></linearGradient><linearGradient id="linear-gradient-2" x1="-4.26" y1="1.15" x2="33.82" y2="36.63" xlink:href="#linear-gradient"/></defs><g id="Layer_2" data-name="Layer 2"><g id="Layer_1-2" data-name="Layer 1"><path class="cls-1" d="M17.59,24.48A2.82,2.82,0,0,0,19.15,24l1.32-.85c.56-.36.66-1.17.26-2.16a5.45,5.45,0,0,0-3-3,1,1,0,0,0-.71,0l-1.27.66h0a4.6,4.6,0,0,1-3.12-3,4.55,4.55,0,0,1,.12-4.33l1.39-.44a1,1,0,0,0,.54-.45,5.43,5.43,0,0,0,0-4.28c-.36-.88-.9-1.38-1.49-1.38l-.2,0-1.55.32A3.32,3.32,0,0,0,9.25,7c-1.31,2.45-1.3,6.77,0,10C10.9,21,14.78,24.48,17.59,24.48Zm-7.42-17a2.3,2.3,0,0,1,1.49-1.32l1.52-.31c.05,0,.3.16.53.73a4.5,4.5,0,0,1,0,3.3l0,0-1.48.45a.49.49,0,0,0-.26.19l-.12.15a5.56,5.56,0,0,0-.25,5.35,5.55,5.55,0,0,0,3.93,3.66l.19,0a.51.51,0,0,0,.32-.05L17.43,19h.05a4.45,4.45,0,0,1,2.27,2.4c.24.57.17.85.15.88l-1.32.85a1.79,1.79,0,0,1-1,.27c-2.35,0-5.91-3.29-7.34-6.78C9.05,13.69,9,9.67,10.17,7.5Z"/><path class="cls-2" d="M8,27.47a14.66,14.66,0,0,0,6.79,1.67h0A14.57,14.57,0,0,0,25.05,4.27a14.57,14.57,0,0,0-20.61,0A14.65,14.65,0,0,0,1.85,21.36L0,29.32ZM2.87,21A13.58,13.58,0,0,1,5.19,5,13.52,13.52,0,0,1,24.31,24.13a13.54,13.54,0,0,1-16,2.32l-.17-.09L1.4,27.92,3,21.21Z"/></g></g></svg>