<svg xmlns="http://www.w3.org/2000/svg" viewBox="0 0 19.37 14.34"><defs><style>.cls-1{fill:#fff;}</style></defs><g id="Layer_2" data-name="Layer 2"><g id="Layer_1-2" data-name="Layer 1"><path class="cls-1" d="M13,9.65H2.89a1.21,1.21,0,1,1,0-2.42h8.52L14.47,0h3.69a1.21,1.21,0,1,1,0,2.41H16.07Z"/><path class="cls-1" d="M5.78,12.41a1.93,1.93,0,1,1-1.93-1.93A1.92,1.92,0,0,1,5.78,12.41Z"/><path class="cls-1" d="M13,12.41a1.93,1.93,0,1,1-1.93-1.93A1.93,1.93,0,0,1,13,12.41Z"/><polygon class="cls-1" points="9.92 5.58 2.32 5.58 0 0 12.4 0 9.92 5.58"/></g></g></svg>