<svg xmlns="http://www.w3.org/2000/svg" viewBox="0 0 23.48 14.44"><defs><style>.cls-1{fill:#5b5b5b;stroke:#5b5b5b;stroke-miterlimit:10;stroke-width:0.25px;fill-rule:evenodd;}</style></defs><g id="Layer_2" data-name="Layer 2"><g id="Layer_1-2" data-name="Layer 1"><path class="cls-1" d="M21.58,2H14V3.38a4.39,4.39,0,0,1,1.38,1.55,4.89,4.89,0,0,1,0,4.58A4.43,4.43,0,0,1,14,11.07v1.34h7.6V2ZM12,.58V13.86h1.47V.58Zm-.46,13.28V.58H10V13.86ZM.93.12H22.55a.8.8,0,0,1,.57.24.84.84,0,0,1,.23.57V13.52a.79.79,0,0,1-.23.56l0,0a.78.78,0,0,1-.55.22H.93a.8.8,0,0,1-.57-.24h0a.8.8,0,0,1-.24-.56V.93A.85.85,0,0,1,.36.36h0A.8.8,0,0,1,.93.12ZM22.55.58a.3.3,0,0,1,.24.11.3.3,0,0,1,.1.24V13.52a.31.31,0,0,1-.1.24h0a.32.32,0,0,1-.23.09H13.9v-1h7.91a.23.23,0,0,0,.23-.23V1.81a.23.23,0,0,0-.23-.23H13.9v-1Zm-13,0H.93A.3.3,0,0,0,.69.69h0a.37.37,0,0,0-.1.25V13.52a.35.35,0,0,0,.1.24.37.37,0,0,0,.25.1H9.58v-1H1.66a.22.22,0,0,1-.22-.23V1.81a.22.22,0,0,1,.22-.23H9.58v-1Zm9.77,5.77a.88.88,0,0,1,.62.26.87.87,0,0,1,.25.62.89.89,0,0,1-.25.61h0a.88.88,0,0,1-.62.26.84.84,0,0,1-.61-.26h0a.87.87,0,0,1,0-1.22.84.84,0,0,1,.61-.26Zm.29.59a.37.37,0,0,1,.12.29.4.4,0,0,1-.12.29h0a.41.41,0,0,1-.29.12.45.45,0,0,1-.29-.12h0a.42.42,0,0,1,.3-.7.38.38,0,0,1,.29.13ZM4.13,6.35a.85.85,0,0,0-.6.25h0a.88.88,0,0,0,0,1.23h0a.88.88,0,0,0,.62.26A.89.89,0,0,0,5,7.23a.88.88,0,0,0-.26-.62h0a.85.85,0,0,0-.61-.26Zm.29.58a.45.45,0,0,0-.29-.12.4.4,0,0,0-.28.12h0a.38.38,0,0,0-.13.29.45.45,0,0,0,.12.29h0a.41.41,0,0,0,.29.12.41.41,0,0,0,.41-.41.41.41,0,0,0-.12-.29h0Zm-.91.91V7.52a.22.22,0,0,0,0,.32Zm-.74,3.48H5.48a.23.23,0,1,0,0-.46H2.77a.23.23,0,0,0,0,.46Zm15.22,0a.23.23,0,1,1,0-.46h2.72a.23.23,0,1,1,0,.46Zm0-7.74a.23.23,0,0,1-.23-.23A.24.24,0,0,1,18,3.12h2.72a.23.23,0,0,1,.23.23.23.23,0,0,1-.23.23Zm-15.22,0H5.48a.23.23,0,0,0,.24-.23.24.24,0,0,0-.24-.23H2.77a.23.23,0,0,0-.23.23.23.23,0,0,0,.23.23ZM14,4a4.26,4.26,0,0,1,1,1.2A4.48,4.48,0,0,1,15,9.3a4.22,4.22,0,0,1-1,1.19V4ZM9.5,4a4.1,4.1,0,0,0-1,1.2,4.48,4.48,0,0,0,0,4.15,4.06,4.06,0,0,0,1,1.19V4Zm-1.38,1A4.39,4.39,0,0,1,9.5,3.38V2H1.9V12.41H9.5V11.07A4.43,4.43,0,0,1,8.12,9.51a4.89,4.89,0,0,1,0-4.58Z"/></g></g></svg>