<svg xmlns="http://www.w3.org/2000/svg" viewBox="0 0 27.57 25.41"><defs><style>.cls-1{fill:#5b5b5b;stroke:#5b5b5b;stroke-miterlimit:10;stroke-width:0.25px;fill-rule:evenodd;}</style></defs><g id="Layer_2" data-name="Layer 2"><g id="Layer_1-2" data-name="Layer 1"><path class="cls-1" d="M24.27,15.43a.29.29,0,1,1,.58,0V20.7a.29.29,0,0,1-.58,0V18.35H21.92a1,1,0,0,1-.72-.29h0a1,1,0,0,1-.29-.72V15.43a.29.29,0,1,1,.57,0v1.91a.44.44,0,0,0,.44.44h2.35V15.43Zm-3-4.51a8.68,8.68,0,0,0-.19-1,9.25,9.25,0,0,0-.44-1.35h0a8.28,8.28,0,0,0-.85-1.58,8.64,8.64,0,0,0-1.15-1.41h0a9.26,9.26,0,0,0-1.41-1.16,9,9,0,0,0-1.59-.85h0a9.57,9.57,0,0,0-3.53-.69,8.86,8.86,0,0,0-1.8.18,8.25,8.25,0,0,0-1.73.52h0a9.05,9.05,0,0,0-1.6.85A9.26,9.26,0,0,0,5.53,5.53h0a9.2,9.2,0,0,0-2,3A9,9,0,0,0,3,10.27a9.14,9.14,0,0,0,0,3.61,9,9,0,0,0,.52,1.74,9.2,9.2,0,0,0,2,3v0a10.25,10.25,0,0,0,1.4,1.14,9.32,9.32,0,0,0,1.59.85,9.41,9.41,0,0,0,3.54.7c.35,0,.69,0,1,0l.63-.09a7.2,7.2,0,0,1,7.55-10.27ZM14,21.72c-.28.05-.56.1-.85.13a9.46,9.46,0,0,1-1.07.06,9.7,9.7,0,0,1-3.75-.75A9.92,9.92,0,0,1,5.14,19h0a10.38,10.38,0,0,1-1.22-1.5A9.56,9.56,0,0,1,3,15.83a9.77,9.77,0,0,1-.56-5.67A10.42,10.42,0,0,1,3,8.31,9.82,9.82,0,0,1,3.9,6.62a10.38,10.38,0,0,1,1.22-1.5h0A10.38,10.38,0,0,1,6.62,3.9,9.18,9.18,0,0,1,8.31,3h0a9.35,9.35,0,0,1,1.84-.56,9.75,9.75,0,0,1,3.83,0A10,10,0,0,1,15.82,3h0a9.18,9.18,0,0,1,1.69.91A10.38,10.38,0,0,1,19,5.12h0a10.38,10.38,0,0,1,1.22,1.5,8.75,8.75,0,0,1,.9,1.68h0a9.7,9.7,0,0,1,.47,1.44A9,9,0,0,1,21.85,11a7.16,7.16,0,0,1,1.59.57A11.31,11.31,0,0,0,20.12,4a11.32,11.32,0,0,0-8-3.33,11.44,11.44,0,0,0-4.35.86A11.43,11.43,0,0,0,1.56,7.72,11.39,11.39,0,0,0,4,20.12a11.55,11.55,0,0,0,3.69,2.47,11.44,11.44,0,0,0,4.35.86,12.25,12.25,0,0,0,1.73-.13A11.78,11.78,0,0,0,15,23.07a7.48,7.48,0,0,1-1-1.35Zm1.5,1.81A7.23,7.23,0,1,0,24,11.92a12,12,0,0,0-.9-4.41A12.05,12.05,0,0,0,16.64,1,11.91,11.91,0,0,0,7.51,1a11.82,11.82,0,0,0-3.88,2.6A11.94,11.94,0,0,0,12.07,24a12.09,12.09,0,0,0,1.82-.13,14.26,14.26,0,0,0,1.6-.36ZM12.64,9.91a.29.29,0,0,1,.54.22l-.33.8L17.4,6.38a.29.29,0,0,1,.41.41L13,11.55l.61.46a.29.29,0,0,1,.06.4l-.85,1.13a.29.29,0,0,1-.4.06l-.53-.4L9.45,19.31a.29.29,0,0,1-.37.15.28.28,0,0,1-.16-.37l2.33-5.75-.41.41a.28.28,0,0,1-.41,0,.28.28,0,0,1,0-.4l.73-.73L6.46,9.11a.28.28,0,0,1-.06-.4l.84-1.13a.29.29,0,0,1,.4-.06l4.58,3.42.42-1ZM12.58,13l-.81-.59v0L7,8.82l.5-.66,4.89,3.65h0l.63.48-.49.66Zm12.34.4a6.65,6.65,0,0,0-11.35,4.7,6.71,6.71,0,0,0,.81,3.19h0a7,7,0,0,0,1.13,1.5,6.65,6.65,0,0,0,11.35-4.7,6.66,6.66,0,0,0-1.95-4.7Zm-8.83,2.36a.29.29,0,0,1,0-.58h2.62a1,1,0,0,1,.71.3h0a1,1,0,0,1,.29.71v1.19a1,1,0,0,1-.29.72h0a1,1,0,0,1-.71.29H16.6a.44.44,0,0,0-.31.13.47.47,0,0,0-.12.3V20a.47.47,0,0,0,.12.3h0a.47.47,0,0,0,.3.12h2.83a.29.29,0,1,1,0,.57H16.6a1,1,0,0,1-.7-.28h0a1,1,0,0,1-.3-.71v-1.2a1,1,0,0,1,.3-.71,1,1,0,0,1,.71-.29h2.11a.44.44,0,0,0,.44-.44V16.15a.4.4,0,0,0-.13-.3.44.44,0,0,0-.31-.13Z"/></g></g></svg>