<svg xmlns="http://www.w3.org/2000/svg" xmlns:xlink="http://www.w3.org/1999/xlink" viewBox="0 0 35.38 23.79"><defs><style>.cls-1{fill-rule:evenodd;fill:url(#linear-gradient);}</style><linearGradient id="linear-gradient" x1="-5.43" y1="-13.86" x2="34.75" y2="24.23" gradientUnits="userSpaceOnUse"><stop offset="0" stop-color="#964c9c"/><stop offset="1" stop-color="#40e5ed"/></linearGradient></defs><g id="Layer_2" data-name="Layer 2"><g id="Layer_1-2" data-name="Layer 1"><path class="cls-1" d="M11.73,8h0ZM10.2,18.45l1.91-3.22-.41-.16-.44-.16a.52.52,0,0,0-.37,0h0a.56.56,0,0,0-.26.17l-.22.33-1.33,2a.65.65,0,0,0,0,.24.6.6,0,0,0,.09.22.65.65,0,0,0,.18.15l.84.49ZM29.38,0H35a.38.38,0,0,1,.38.38V15.73a.38.38,0,0,1-.38.38H29.38a.38.38,0,0,1-.38-.38v-.68L27.26,16.2h0a1.47,1.47,0,0,1,.14.4,1.35,1.35,0,0,1-.09.74l-.12.29A9.08,9.08,0,0,1,26,19.73a9.38,9.38,0,0,1-1.7,1.69L21.6,23.51a1.34,1.34,0,0,1-1.5.1l-2.49-1.48a1.18,1.18,0,0,1-.3.33h0a1.38,1.38,0,0,1-.47.23,1.33,1.33,0,0,1-.52,0,1.35,1.35,0,0,1-.5-.17h0L9,18.62a1.2,1.2,0,0,1-.41-.36,1.48,1.48,0,0,1-.23-.51,1.46,1.46,0,0,1,0-.55c0-.06,0-.13.06-.2l-2-1.79v.52a.38.38,0,0,1-.39.38H.38A.38.38,0,0,1,0,15.73V.38A.38.38,0,0,1,.38,0H6a.38.38,0,0,1,.39.38V.69l2.79.88A1.34,1.34,0,0,1,10,3.24l0,.07,3.31.28h0l6.41.76c.53-.15,1.07-.29,1.65-.42l4-.91a1.28,1.28,0,0,1,.13-.86,1.3,1.3,0,0,1,.78-.65L29,.69V.38A.38.38,0,0,1,29.38,0ZM26.77,15.63l.07-.06,2-1.34.09-.05L25.69,3.76l-4.1.92c-.58.13-1.13.27-1.66.43h0l-.38.11c-.66.22-1.32.45-2,.74L12.59,8l.19.42a2,2,0,0,0,.93.93,1.86,1.86,0,0,0,1.3.1l4.72-1.26a.37.37,0,0,1,.39.12l6.65,7.33ZM12.83,15.5l.28.12c.24.1.46.22.69.34s.43.26.64.4l-2,3.35-1.53-.88,2-3.33Zm.22,4.59,1.61.93L16.51,18l-1.46-1.15-2,3.27Zm2.27,1.31.87.51h0a.51.51,0,0,0,.22.07.55.55,0,0,0,.22,0,1,1,0,0,0,.21-.1h0a.47.47,0,0,0,.14-.17l1.07-1.89a.6.6,0,0,0,.07-.39.61.61,0,0,0-.21-.34l-.8-.63-1.79,3Zm-8.77-7,2.25,2L10,14.68h0a1.34,1.34,0,0,1,.69-.51h0a1.34,1.34,0,0,1,.86,0l1.33.49a10.72,10.72,0,0,1,1.32.6,9.54,9.54,0,0,1,1,.64h0l.06.05.16.13,3,2.36a1.3,1.3,0,0,1,.34.4l4,2.78,1.07-.83.39-.32-5.75-4.39a.38.38,0,0,1,.46-.61L24.77,20a6.74,6.74,0,0,0,.61-.71,6.22,6.22,0,0,0,.45-.65L20.69,14a.38.38,0,0,1,.51-.57l5,4.46.27-.58.12-.29a.59.59,0,0,0,0-.32.52.52,0,0,0-.14-.29L19.71,9l-4.5,1.21A2.69,2.69,0,0,1,13.39,10a2.63,2.63,0,0,1-1.29-1.3L11.73,8v0a.37.37,0,0,1,.21-.49l5.28-2.18.86-.33-4.8-.58h0L9.8,4.05h0L6.55,14.35Zm12.29,5.53a1.3,1.3,0,0,1-.13.3L18,21.47,20.49,23a.56.56,0,0,0,.33.08.63.63,0,0,0,.31-.12l1-.77-3.28-2.26ZM6.38,12.36,9.32,3a.66.66,0,0,0,0-.44.56.56,0,0,0-.34-.28L6.38,1.49V12.36ZM5.61.76H.76V15.34H5.61V.76ZM29,11.76V1.49l-2.39.75a.64.64,0,0,0-.34.28.67.67,0,0,0,0,.44L29,11.76Zm.76,2.48h0v1.09h4.85V.76H29.76V1h0Z"/></g></g></svg>