<svg xmlns="http://www.w3.org/2000/svg" viewBox="0 0 13.89 13.91"><defs><style>.cls-1{fill:#5b5b5b;}.cls-2{fill:#ededed;}</style></defs><g id="Layer_2" data-name="Layer 2"><g id="Layer_1-2" data-name="Layer 1"><path class="cls-1" d="M13.89,7c0,1.32,0,2.63,0,3.94a2.66,2.66,0,0,1-3,3c-2.62,0-5.25,0-7.87,0-2,0-3-1-3-3C0,8.24,0,5.61,0,3A2.67,2.67,0,0,1,3,0c2.62,0,5.25,0,7.87,0,2,0,3,1,3,3C13.9,4.36,13.89,5.67,13.89,7Z"/><path class="cls-2" d="M3.36,5.54c-.53,2-.08,3.61,1.65,4.68a3.52,3.52,0,0,0,4.11-.16,3.88,3.88,0,0,0,1.44-4.51h1.57s.51-.08.5,1c0,1.2,0,3.24,0,4.44s-.52,1.66-1.66,1.67c-2.68,0-5.37,0-8,0-1.12,0-1.64-.54-1.65-1.69,0-1.6,0-3.2,0-4.81,0-.44.1-.59.58-.6Z"/><path class="cls-2" d="M7,9.4A2.45,2.45,0,1,1,9.4,7,2.46,2.46,0,0,1,7,9.4Z"/><path class="cls-2" d="M9.94,2.74c0-1.17,0-1.17,1.3-1.17,1,0,1,0,1,1.36,0,1,0,1-1.36,1C9.94,4,9.94,4,9.94,2.74Z"/></g></g></svg>