<svg xmlns="http://www.w3.org/2000/svg" xmlns:xlink="http://www.w3.org/1999/xlink" viewBox="0 0 31.79 31.79"><defs><style>.cls-1{fill:url(#linear-gradient);}.cls-2{fill:url(#linear-gradient-2);}.cls-3{fill:url(#linear-gradient-3);}.cls-4{fill:url(#linear-gradient-4);}.cls-5{fill:url(#linear-gradient-5);}</style><linearGradient id="linear-gradient" x1="-1.3" y1="-8.26" x2="53.48" y2="44.96" gradientUnits="userSpaceOnUse"><stop offset="0" stop-color="#964c9c"/><stop offset="1" stop-color="#40e5ed"/></linearGradient><linearGradient id="linear-gradient-2" x1="-1.87" y1="-7.68" x2="52.92" y2="45.54" xlink:href="#linear-gradient"/><linearGradient id="linear-gradient-3" x1="-12.14" y1="2.89" x2="42.65" y2="56.11" xlink:href="#linear-gradient"/><linearGradient id="linear-gradient-4" x1="-6.11" y1="-3.32" x2="48.67" y2="49.9" xlink:href="#linear-gradient"/><linearGradient id="linear-gradient-5" x1="-10.46" y1="1.16" x2="44.33" y2="54.38" xlink:href="#linear-gradient"/></defs><g id="Layer_2" data-name="Layer 2"><g id="Layer_1-2" data-name="Layer 1"><g id="location"><path class="cls-1" d="M15.89,12.91a4.47,4.47,0,1,1,4.47-4.47A4.47,4.47,0,0,1,15.89,12.91Zm0-7.94a3.48,3.48,0,1,0,3.48,3.47A3.48,3.48,0,0,0,15.89,5Z"/><path class="cls-2" d="M15.89,21.85c-1.93,0-8.44-9-8.44-13.41a8.45,8.45,0,0,1,16.89,0c0,2.87-2.45,6.82-3.5,8.38C20.49,17.34,17.41,21.85,15.89,21.85ZM15.89,1A7.46,7.46,0,0,0,8.44,8.44c0,4.23,6.29,12.29,7.46,12.42,1.16-.13,7.44-8.19,7.44-12.42A7.46,7.46,0,0,0,15.89,1Z"/><path class="cls-3" d="M8.94,28.31h-.1a.5.5,0,0,1-.39-.59l1.49-7.44a.5.5,0,0,1,.59-.39.49.49,0,0,1,.39.58L9.43,27.91A.5.5,0,0,1,8.94,28.31Z"/><path class="cls-4" d="M22.85,28.31a.49.49,0,0,1-.49-.4l-1.49-7.45a.49.49,0,0,1,.39-.58.48.48,0,0,1,.58.39l1.49,7.44a.49.49,0,0,1-.39.59Z"/><path class="cls-5" d="M31.29,31.79a.58.58,0,0,1-.19,0l-8.25-3.4-6.76,2.9a.53.53,0,0,1-.39,0l-6.76-2.9L.69,31.75a.51.51,0,0,1-.53-.1A.48.48,0,0,1,0,31.13L4.5,17.72a.46.46,0,0,1,.31-.31l3.45-1.15.31.94L5.36,18.27,1.31,30.42l7.44-3.07a.48.48,0,0,1,.39,0l6.75,2.89,6.76-2.89a.48.48,0,0,1,.39,0l7.43,3.07-4-12.15L23.21,17.2l.31-.94L27,17.41a.5.5,0,0,1,.31.31l4.47,13.41a.5.5,0,0,1-.13.52A.51.51,0,0,1,31.29,31.79Z"/></g></g></g></svg>