<svg xmlns="http://www.w3.org/2000/svg" viewBox="0 0 102.56 44.44"><defs><style>.cls-1{fill:#303030;}.cls-2{fill:#86f2ef;}</style></defs><g id="Layer_2" data-name="Layer 2"><g id="Layer_1-2" data-name="Layer 1"><path class="cls-1" d="M24.37,43.81a3.7,3.7,0,0,1-3.17.4l.13-1.14c1.67,1,3.77-.81,1.09-1.57-3-1.36-.27-4.39,2.15-3.4l-.1,1c-1-.52-3,.11-1.68,1.17C24.31,40.65,26,42.45,24.37,43.81Z"/><path class="cls-1" d="M37.26,39.1v5.18h-1.2V39.1h-1.6v-1h4.4v1Z"/><path class="cls-1" d="M53.22,43.5c-3.13,3-6.78-1.87-4.07-4.64C52.29,35.86,55.92,40.73,53.22,43.5Zm-.79-3.85c-1.92-2.06-3.81,1.43-2.49,3.06C51.87,44.76,53.75,41.28,52.43,39.65Z"/><path class="cls-1" d="M67,44.28l-1.67-2.56h-.1v2.56H64V38.09c2.8-.84,6.17,1.82,2.5,3.43.43.54,1.54,2.2,1.93,2.76ZM65.68,39a2.91,2.91,0,0,0-.47,0v1.79C66.73,41.32,67.62,39,65.68,39Z"/><path class="cls-1" d="M78.24,44.28V38.09h3.37v1H79.43v1.53H81.5v1H79.43v1.67h2.18v1Z"/><path class="cls-1" d="M7.44,30.82A24.07,24.07,0,0,1,.22,29.73L1,24.78c8.26,4.76,20.13-2.9,6.42-7.73C-8.43,11,4.14-4,17,1l-.65,4.72C10.9,3.22,1.18,5.45,7.05,11.32c.71.61,8.33,3.34,9.32,4.7C22.72,22.28,15.67,31.66,7.44,30.82Z"/><path class="cls-1" d="M82,31.13H76.34C74.16,24.61,70.4,14.5,68.12,8c-1.14,3.41-4.6,12.72-5.69,16h0l-2.55,7.05H54.54L65,3a3.53,3.53,0,0,1,6.58,0C74.25,10.21,79.35,23.94,82,31.13Z"/><path class="cls-1" d="M102.56,31.13H86.84V.65H92V26.54h10.61Z"/><rect class="cls-1" x="44.76" y="0.66" width="5.07" height="30.48"/><rect class="cls-2" x="30.64" y="13.36" width="9.41" height="5.07"/><rect class="cls-1" x="25.92" y="0.66" width="5.1" height="30.48"/></g></g></svg>