<svg xmlns="http://www.w3.org/2000/svg" viewBox="0 0 11.11 14.47"><defs><style>.cls-1{fill:#964c9c;}</style></defs><g id="Layer_2" data-name="Layer 2"><g id="Layer_1-2" data-name="Layer 1"><path class="cls-1" d="M8.64,4.39h2.47L9.05,2.19,7,0V2.74A1.65,1.65,0,0,0,8.64,4.39Z"/><path class="cls-1" d="M7.82,5.21A1.65,1.65,0,0,1,6.17,3.57V.07H1.65A1.65,1.65,0,0,0,0,1.71V12.82a1.64,1.64,0,0,0,1.53,1.64H10v-.08a1.65,1.65,0,0,0,1.13-1.57V5.21Zm1.4,7.45a.46.46,0,0,1-.45.45H2.44A.46.46,0,0,1,2,12.66V12a.46.46,0,0,1,.46-.45H8.77a.45.45,0,0,1,.45.45Zm0-2.83a.45.45,0,0,1-.45.45H2.44A.46.46,0,0,1,2,9.83V9.15a.46.46,0,0,1,.46-.45H8.77a.45.45,0,0,1,.45.45Zm0-2.71a.45.45,0,0,1-.45.45H2.44A.46.46,0,0,1,2,7.12V6.44A.46.46,0,0,1,2.44,6H8.77a.45.45,0,0,1,.45.45Z"/></g></g></svg>