<svg xmlns="http://www.w3.org/2000/svg" viewBox="0 0 10.71 13.15"><defs><style>.cls-1{fill:#b2b2b2;}</style></defs><g id="Layer_2" data-name="Layer 2"><g id="Layer_1-2" data-name="Layer 1"><path class="cls-1" d="M9.73,2.91a.32.32,0,0,0-.37.28L8.17,11.7a.88.88,0,0,1-.77.79H3.31a.88.88,0,0,1-.77-.79L1.35,3.19A.32.32,0,0,0,1,2.91a.34.34,0,0,0-.29.37l1.19,8.51a1.64,1.64,0,0,0,.48,1,1.35,1.35,0,0,0,1,.41H7.4a1.35,1.35,0,0,0,.95-.41,1.64,1.64,0,0,0,.48-1L10,3.28A.34.34,0,0,0,9.73,2.91Z"/><path class="cls-1" d="M4.11,11.56h0a.33.33,0,0,0,.31-.35L4.08,4.36A.33.33,0,0,0,3.73,4a.34.34,0,0,0-.32.35l.37,6.86A.33.33,0,0,0,4.11,11.56Z"/><path class="cls-1" d="M6.6,11.56a.33.33,0,0,0,.33-.31L7.3,4.39A.35.35,0,0,0,7,4a.33.33,0,0,0-.35.32l-.36,6.85a.33.33,0,0,0,.31.35Z"/><path class="cls-1" d="M10.38,1.75H6.93v-.6A1.23,1.23,0,0,0,5.63,0H5.08a1.23,1.23,0,0,0-1.3,1.15v.6H.33a.34.34,0,0,0,0,.67H10.38a.34.34,0,0,0,0-.67Zm-5.93-.6c0-.26.29-.48.63-.48h.55c.34,0,.63.22.63.48v.6H4.45Z"/></g></g></svg>