<svg xmlns="http://www.w3.org/2000/svg" viewBox="0 0 10.84 10.79"><defs><style>.cls-1{fill:#964c9c;}</style></defs><g id="Layer_2" data-name="Layer 2"><g id="Layer_1-2" data-name="Layer 1"><path class="cls-1" d="M4.73,7.42a1,1,0,0,1-.2.28L2.94,9.28a1,1,0,0,1-1.43,0,1,1,0,0,1,0-1.44l1.6-1.58a.87.87,0,0,1,.28-.19l0-.06L4.57,4.89a2.21,2.21,0,0,0-2.32.51L.66,7a2.22,2.22,0,0,0,3.13,3.16l1.6-1.58a2.22,2.22,0,0,0,.53-2.31L4.79,7.37Z"/><path class="cls-1" d="M10.19.66a2.22,2.22,0,0,0-3.14,0L5.45,2.23a2.2,2.2,0,0,0-.53,2.31L6,3.48l.11-.09a1.21,1.21,0,0,1,.2-.3L7.9,1.51a1,1,0,0,1,1.43,0A1,1,0,0,1,9.33,3L7.73,4.53a1,1,0,0,1-.3.2l-.09.11L6.27,5.9a2.21,2.21,0,0,0,2.31-.51l1.6-1.58A2.23,2.23,0,0,0,10.19.66Z"/><path class="cls-1" d="M7.09,4.59a.61.61,0,0,0,0-.86.6.6,0,0,0-.86,0L6,4l-.94.94L4.91,5,4,6l-.29.28a.6.6,0,0,0,0,.86.58.58,0,0,0,.61.15.62.62,0,0,0,.25-.14l.28-.29.95-.94.15-.15,1-.94Z"/></g></g></svg>