<svg xmlns="http://www.w3.org/2000/svg" viewBox="0 0 14.09 13.29"><defs><style>.cls-1{fill:#5b5b5b;}</style></defs><g id="Layer_2" data-name="Layer 2"><g id="Layer_1-2" data-name="Layer 1"><path class="cls-1" d="M8.9,12.52A2.79,2.79,0,0,1,11.19,12c.22.06.59.17.65-.1.2-.93,1-.94,1.64-1.11a1,1,0,0,0,.61-.54c-.24-.05-.47-.13-.7-.2a2.75,2.75,0,0,1-.57-.2,1.57,1.57,0,0,1-.63-.54l-.36-.47c-1.15-1.36-1.1-1.65.4-2.54.22-.13.56-.25.39-.59a.54.54,0,0,0-.7-.26c-1,.42-1.19-.09-1.07-1a4.3,4.3,0,0,0,0-.72A3.4,3.4,0,0,0,8.15.13,3.92,3.92,0,0,0,3.67,2a4.77,4.77,0,0,0-.32,2.56c.06,1.11.06,1.12-1,.93-.34-.06-.64,0-.74.3s.25.43.48.56.27.11.41.17c.89.38,1,.67.53,1.5a4.33,4.33,0,0,1-3,2.23,1,1,0,0,0,.61.54c.68.17,1.44.18,1.64,1.11.06.27.43.16.65.1a2.53,2.53,0,0,1,2.29.55A2.65,2.65,0,0,0,8.9,12.52Z"/></g></g></svg>