<svg xmlns="http://www.w3.org/2000/svg" viewBox="0 0 14.57 11.91"><defs><style>.cls-1{fill:#5b5b5b;}</style></defs><g id="Layer_2" data-name="Layer 2"><g id="Layer_1-2" data-name="Layer 1"><path class="cls-1" d="M.11,10.6a9,9,0,0,0,1,0,5.49,5.49,0,0,0,1.13-.21A6,6,0,0,0,4,9.62a3.2,3.2,0,0,0,.4-.3,3,3,0,0,1-1.73-.6A2.91,2.91,0,0,1,1.6,7.24a3,3,0,0,0,1.29,0A4.17,4.17,0,0,1,.94,5.72,3,3,0,0,1,.53,4.25c0-.08,0,0,.07,0a3.07,3.07,0,0,0,.93.3c.11,0,.22,0,.34,0a3.08,3.08,0,0,1-.93-4l.53.57A8,8,0,0,0,3,2.36a8.17,8.17,0,0,0,2.34,1,8.27,8.27,0,0,0,1.7.28c.12,0,.13,0,.11-.12a2.93,2.93,0,0,1,1-2.85A2.83,2.83,0,0,1,10.31,0a2.9,2.9,0,0,1,1.92.87.17.17,0,0,0,.18,0A5.91,5.91,0,0,0,14.05.3L14.2.23a3,3,0,0,1-1.26,1.62,5.3,5.3,0,0,0,1.63-.42,1.92,1.92,0,0,1-.25.38,5.53,5.53,0,0,1-1.1,1.06.25.25,0,0,0-.1.22,8.41,8.41,0,0,1-.29,2.44,8.92,8.92,0,0,1-1.55,3.15,8.39,8.39,0,0,1-1.93,1.83,7.75,7.75,0,0,1-1.82.91,9,9,0,0,1-1.85.43,9.85,9.85,0,0,1-1.8,0,8.46,8.46,0,0,1-2.23-.48,9.09,9.09,0,0,1-1.57-.76l0-.05S.08,10.59.11,10.6Z"/><path class="cls-1" d="M.11,10.59H0l0,0S.08,10.56.11,10.59Z"/></g></g></svg>