<svg xmlns="http://www.w3.org/2000/svg" viewBox="0 0 2119.39 175.62"><defs><style>.cls-1{fill:#f9f9f9;}</style></defs><g id="Layer_2" data-name="Layer 2"><g id="Layer_1-2" data-name="Layer 1"><polygon class="cls-1" points="1048.43 0 1061.22 12.78 1029.39 44.6 1052 67.23 1051.9 67.33 1061.22 76.64 1029.39 108.47 1052 131.08 1039.31 143.78 1016.69 121.16 984.87 153 972.09 140.21 1035.84 76.45 1016.69 57.3 984.87 89.12 972.09 76.34 1048.43 0"/><polygon class="cls-1" points="912.12 99.16 931.26 118.3 963.09 86.48 975.87 99.26 899.53 175.6 886.74 162.82 918.57 131 895.96 108.38 896.07 108.28 886.75 98.96 918.57 67.13 895.95 44.52 908.65 31.82 931.27 54.44 963.09 22.61 975.87 35.39 912.12 99.16"/><polygon class="cls-1" points="735.15 99.16 754.29 118.3 786.12 86.48 798.9 99.26 722.56 175.6 709.77 162.82 741.6 131 718.99 108.38 719.1 108.28 709.78 98.96 741.6 67.13 718.98 44.52 731.68 31.82 754.3 54.44 786.12 22.61 798.9 35.39 735.15 99.16"/><polygon class="cls-1" points="871.46 0 884.25 12.78 852.42 44.6 875.03 67.23 874.93 67.33 884.25 76.64 852.42 108.47 875.03 131.08 862.34 143.78 839.72 121.16 807.9 153 795.12 140.21 858.87 76.45 839.72 57.3 807.9 89.12 795.12 76.34 871.46 0"/><polygon class="cls-1" points="1402.37 0 1415.16 12.78 1383.33 44.6 1405.94 67.23 1405.84 67.33 1415.16 76.64 1383.33 108.47 1405.94 131.08 1393.25 143.78 1370.63 121.16 1338.81 153 1326.03 140.21 1389.79 76.45 1370.63 57.3 1338.81 89.12 1326.03 76.34 1402.37 0"/><polygon class="cls-1" points="1266.06 99.16 1285.22 118.3 1317.03 86.45 1329.82 99.22 1253.53 175.62 1240.73 162.85 1272.54 131.01 1249.91 108.41 1250.02 108.3 1240.69 98.99 1272.49 67.14 1249.86 44.55 1262.54 31.84 1285.18 54.44 1316.98 22.59 1329.77 35.36 1266.06 99.16"/><polygon class="cls-1" points="1225.4 0 1238.19 12.78 1206.36 44.6 1228.97 67.23 1228.87 67.33 1238.19 76.64 1206.36 108.47 1228.97 131.08 1216.28 143.78 1193.66 121.16 1161.84 153 1149.06 140.21 1212.82 76.45 1193.66 57.3 1161.84 89.12 1149.06 76.34 1225.4 0"/><polygon class="cls-1" points="1089.09 99.15 1108.23 118.3 1140.06 86.48 1152.85 99.26 1076.5 175.6 1063.71 162.82 1095.55 131 1072.93 108.38 1073.04 108.28 1063.72 98.96 1095.55 67.13 1072.92 44.52 1085.62 31.82 1108.24 54.44 1140.06 22.61 1152.85 35.39 1089.09 99.15"/><polygon class="cls-1" points="338.66 0 351.45 12.78 319.62 44.6 342.23 67.23 342.13 67.33 351.45 76.64 319.62 108.47 342.23 131.08 329.54 143.78 306.92 121.16 275.1 153 262.32 140.21 326.07 76.45 306.92 57.3 275.1 89.12 262.32 76.34 338.66 0"/><polygon class="cls-1" points="202.35 99.16 221.49 118.3 253.32 86.48 266.1 99.26 189.76 175.6 176.97 162.82 208.8 131 186.19 108.38 186.3 108.28 176.98 98.96 208.8 67.13 186.18 44.52 198.88 31.82 221.5 54.44 253.32 22.61 266.1 35.39 202.35 99.16"/><polygon class="cls-1" points="25.38 99.16 44.52 118.3 76.35 86.48 89.13 99.26 12.79 175.6 0 162.82 31.82 131 9.22 108.38 9.33 108.28 0.01 98.96 31.83 67.13 9.21 44.52 21.91 31.82 44.53 54.44 76.35 22.61 89.13 35.39 25.38 99.16"/><polygon class="cls-1" points="161.69 0 174.48 12.78 142.65 44.6 165.26 67.23 165.16 67.33 174.48 76.64 142.65 108.47 165.26 131.08 152.56 143.78 129.95 121.16 98.13 153 85.35 140.21 149.1 76.45 129.95 57.3 98.13 89.12 85.35 76.34 161.69 0"/><polygon class="cls-1" points="692.6 0 705.39 12.78 673.56 44.6 696.17 67.23 696.07 67.33 705.39 76.64 673.56 108.47 696.17 131.08 683.48 143.78 660.86 121.16 629.04 153 616.26 140.21 680.02 76.45 660.86 57.3 629.04 89.12 616.26 76.34 692.6 0"/><polygon class="cls-1" points="556.29 99.15 575.43 118.3 607.26 86.48 620.04 99.26 543.7 175.6 530.91 162.82 562.74 131 540.13 108.38 540.24 108.28 530.92 98.96 562.74 67.13 540.13 44.52 552.82 31.82 575.44 54.44 607.26 22.61 620.04 35.39 556.29 99.15"/><polygon class="cls-1" points="515.63 0 528.42 12.78 496.59 44.6 519.2 67.23 519.1 67.33 528.42 76.64 496.59 108.47 519.2 131.08 506.5 143.78 483.89 121.16 452.07 153 439.29 140.21 503.04 76.45 483.89 57.3 452.07 89.12 439.29 76.34 515.63 0"/><polygon class="cls-1" points="379.32 99.15 398.46 118.3 430.29 86.48 443.07 99.26 366.73 175.6 353.94 162.82 385.77 131 363.16 108.38 363.27 108.28 353.95 98.96 385.77 67.13 363.15 44.52 375.85 31.82 398.47 54.44 430.29 22.61 443.07 35.39 379.32 99.15"/><polygon class="cls-1" points="1752.66 0 1765.45 12.78 1733.62 44.6 1756.23 67.23 1756.13 67.33 1765.45 76.64 1733.62 108.47 1756.23 131.08 1743.54 143.78 1720.92 121.16 1689.1 153 1676.32 140.21 1740.08 76.45 1720.92 57.3 1689.1 89.12 1676.32 76.34 1752.66 0"/><polygon class="cls-1" points="1616.35 99.16 1635.49 118.3 1667.33 86.48 1680.11 99.26 1603.76 175.6 1590.97 162.82 1622.81 131 1600.19 108.38 1600.3 108.28 1590.98 98.96 1622.81 67.13 1600.18 44.52 1612.88 31.82 1635.5 54.44 1667.33 22.61 1680.11 35.39 1616.35 99.16"/><polygon class="cls-1" points="1439.38 99.16 1458.52 118.3 1490.35 86.48 1503.13 99.26 1426.79 175.6 1414 162.82 1445.83 131 1423.22 108.38 1423.33 108.28 1414.01 98.96 1445.84 67.13 1423.21 44.52 1435.91 31.82 1458.53 54.44 1490.35 22.61 1503.13 35.39 1439.38 99.16"/><polygon class="cls-1" points="1575.69 0 1588.48 12.78 1556.65 44.6 1579.26 67.23 1579.16 67.33 1588.48 76.64 1556.65 108.47 1579.26 131.08 1566.57 143.78 1543.95 121.16 1512.13 153 1499.35 140.21 1563.11 76.45 1543.95 57.3 1512.13 89.12 1499.35 76.34 1575.69 0"/><polygon class="cls-1" points="2106.61 0 2119.39 12.78 2087.56 44.6 2110.18 67.23 2110.07 67.33 2119.39 76.64 2087.56 108.47 2110.18 131.08 2097.48 143.78 2074.86 121.16 2043.04 153 2030.26 140.21 2094.02 76.45 2074.86 57.3 2043.04 89.12 2030.26 76.34 2106.61 0"/><polygon class="cls-1" points="1970.29 99.15 1989.43 118.3 2021.27 86.48 2034.05 99.26 1957.7 175.6 1944.91 162.82 1976.75 131 1954.13 108.38 1954.24 108.28 1944.92 98.96 1976.75 67.13 1954.13 44.52 1966.82 31.82 1989.44 54.44 2021.27 22.61 2034.05 35.39 1970.29 99.15"/><polygon class="cls-1" points="1929.63 0 1942.42 12.78 1910.59 44.6 1933.2 67.23 1933.1 67.33 1942.42 76.64 1910.59 108.47 1933.2 131.08 1920.51 143.78 1897.89 121.16 1866.07 153 1853.29 140.21 1917.05 76.45 1897.89 57.3 1866.07 89.12 1853.29 76.34 1929.63 0"/><polygon class="cls-1" points="1793.32 99.15 1812.46 118.3 1844.3 86.48 1857.08 99.26 1780.73 175.6 1767.94 162.82 1799.78 131 1777.16 108.38 1777.27 108.28 1767.95 98.96 1799.78 67.13 1777.15 44.52 1789.85 31.82 1812.47 54.44 1844.3 22.61 1857.08 35.39 1793.32 99.15"/></g></g></svg>